<svg xmlns="http://www.w3.org/2000/svg" width="620" height="795" viewBox="0 0 620 795"><rect width="100%" height="100%" fill="#fbfaf7"/><text x="40" y="40" font-size="20" font-weight="bold" font-family="PingFang SC,Microsoft YaHei,WenQuanYi Zen Hei,sans-serif">泳池边酒吧屋 · 放大平面（7 × 8.5 m ≈ 60 m²）</text><text x="40" y="64" font-size="12" fill="#666" font-family="PingFang SC,Microsoft YaHei,WenQuanYi Zen Hei,sans-serif">上 = 湖　左 = 泳池　外观同主屋：奶油砖墙 · 炭黑屋面 · 黑框窗 · 深古铜金属雨篷</text><rect x="10.0" y="100.0" width="540.0" height="545.0" fill="#ece4d4" stroke="none" stroke-width="1" /><rect x="10.0" y="225.0" width="80.0" height="330.0" fill="#3fa7c4" stroke="#1f6f87" stroke-width="1.5" /><rect x="90.0" y="225.0" width="30.0" height="170.0" fill="#3fa7c4" stroke="#1f6f87" stroke-width="1.5" /><text x="50.0" y="475.0" font-size="12" fill="#fff" font-weight="bold" text-anchor="middle" font-family="PingFang SC,Microsoft YaHei,WenQuanYi Zen Hei,sans-serif">泳池</text><circle cx="105.0" cy="365.0" r="11.0" fill="#e9f7fb" stroke="#1f6f87"/><circle cx="105.0" cy="315.0" r="11.0" fill="#e9f7fb" stroke="#1f6f87"/><circle cx="105.0" cy="265.0" r="11.0" fill="#e9f7fb" stroke="#1f6f87"/><text x="50.0" y="425.0" font-size="9" fill="#e9f7fb" font-weight="normal" text-anchor="middle" font-family="PingFang SC,Microsoft YaHei,WenQuanYi Zen Hei,sans-serif">水下吧凳</text><rect x="150.0" y="100.0" width="300.0" height="80.0" fill="#e3d8c4" stroke="#a89a82" stroke-width="1" /><text x="295.0" y="144.0" font-size="11" fill="#5a3e22" font-weight="normal" text-anchor="middle" font-family="PingFang SC,Microsoft YaHei,WenQuanYi Zen Hei,sans-serif">朝湖露台 · 吧台椅 · 遮阳伞</text><rect x="120.0" y="180.0" width="350.0" height="425.0" fill="#f6efe2" stroke="#222" stroke-width="4" /><line x1="140.0" y1="180.0" x2="450.0" y2="180.0" stroke="#7fc6e0" stroke-width="7"/><text x="295.0" y="172.0" font-size="10" fill="#1f6f87" font-weight="normal" text-anchor="middle" font-family="PingFang SC,Microsoft YaHei,WenQuanYi Zen Hei,sans-serif">整面玻璃折叠门 · 全开后室内外连通</text><line x1="120" y1="225.0" x2="120" y2="395.0" stroke="#7fc6e0" stroke-width="7"/><rect x="127.5" y="225.0" width="35.0" height="170.0" fill="#5a3e22" stroke="none" stroke-width="1" /><rect x="162.5" y="225.0" width="87.5" height="30.0" fill="#3a2a1c" stroke="none" stroke-width="1" /><rect x="230.0" y="255.0" width="20.0" height="180.0" fill="#5a3e22" stroke="none" stroke-width="1" /><text x="175.0" y="445.0" font-size="12" fill="#8a3b12" font-weight="bold" text-anchor="middle" font-family="PingFang SC,Microsoft YaHei,WenQuanYi Zen Hei,sans-serif">双面吧台</text><text x="175.0" y="459.0" font-size="9" fill="#8a3b12" font-weight="normal" text-anchor="middle" font-family="PingFang SC,Microsoft YaHei,WenQuanYi Zen Hei,sans-serif">左：上翻窗朝泳池</text><text x="205.0" y="244.0" font-size="9" fill="#f3e6c8" font-weight="normal" text-anchor="middle" font-family="PingFang SC,Microsoft YaHei,WenQuanYi Zen Hei,sans-serif">背光酒架</text><text x="195.0" y="325.0" font-size="9" fill="#8a3b12" font-weight="normal" text-anchor="middle" font-family="PingFang SC,Microsoft YaHei,WenQuanYi Zen Hei,sans-serif">调酒区</text><text x="195.0" y="337.0" font-size="8" fill="#8a3b12" font-weight="normal" text-anchor="middle" font-family="PingFang SC,Microsoft YaHei,WenQuanYi Zen Hei,sans-serif">制冰 · 生啤</text><text x="295.0" y="405.0" font-size="9" fill="#8a3b12" font-weight="normal" text-anchor="start" font-family="PingFang SC,Microsoft YaHei,WenQuanYi Zen Hei,sans-serif">室内吧台 + 吧凳</text><circle cx="270.0" cy="385.0" r="10.0" fill="#d7c2a2" stroke="#444"/><circle cx="270.0" cy="340.0" r="10.0" fill="#d7c2a2" stroke="#444"/><circle cx="270.0" cy="295.0" r="10.0" fill="#d7c2a2" stroke="#444"/><rect x="290.0" y="210.0" width="160.0" height="85.0" fill="#d8cbb5" stroke="#8a7a62" stroke-width="1" /><text x="370.0" y="256.5" font-size="10" fill="#222" font-weight="normal" text-anchor="middle" font-family="PingFang SC,Microsoft YaHei,WenQuanYi Zen Hei,sans-serif">沙发卡座</text><rect x="340.0" y="325.0" width="70.0" height="50.0" fill="#b99a74" stroke="#8a7a62" stroke-width="1" /><text x="375.0" y="354.0" font-size="9" fill="#222" font-weight="normal" text-anchor="middle" font-family="PingFang SC,Microsoft YaHei,WenQuanYi Zen Hei,sans-serif">茶几</text><line x1="466.0" y1="225.0" x2="466.0" y2="385.0" stroke="#222" stroke-width="5"/><text x="462.5" y="249.0" font-size="9" fill="#222" font-weight="normal" text-anchor="end" font-family="PingFang SC,Microsoft YaHei,WenQuanYi Zen Hei,sans-serif">电视</text><rect x="120.0" y="475.0" width="110.0" height="130.0" fill="#e6dccb" stroke="#888" stroke-width="1" /><text x="175.0" y="544.0" font-size="11" fill="#222" font-weight="normal" text-anchor="middle" font-family="PingFang SC,Microsoft YaHei,WenQuanYi Zen Hei,sans-serif">更衣</text><rect x="230.0" y="475.0" width="70.0" height="130.0" fill="#d9e8ee" stroke="#888" stroke-width="1" /><text x="265.0" y="544.0" font-size="11" fill="#222" font-weight="normal" text-anchor="middle" font-family="PingFang SC,Microsoft YaHei,WenQuanYi Zen Hei,sans-serif">淋浴</text><rect x="300.0" y="475.0" width="70.0" height="130.0" fill="#e6dccb" stroke="#888" stroke-width="1" /><text x="335.0" y="544.0" font-size="11" fill="#222" font-weight="normal" text-anchor="middle" font-family="PingFang SC,Microsoft YaHei,WenQuanYi Zen Hei,sans-serif">卫生间</text><rect x="370.0" y="475.0" width="100.0" height="130.0" fill="#e9e2d3" stroke="#888" stroke-width="1" /><text x="420.0" y="524.0" font-size="10" fill="#222" font-weight="normal" text-anchor="middle" font-family="PingFang SC,Microsoft YaHei,WenQuanYi Zen Hei,sans-serif">储藏/毛巾</text><text x="420.0" y="564.0" font-size="9" fill="#666" font-weight="normal" text-anchor="middle" font-family="PingFang SC,Microsoft YaHei,WenQuanYi Zen Hei,sans-serif">泳池玩具</text><rect x="470.0" y="345.0" width="60.0" height="250.0" fill="#d8d2c6" stroke="#777" stroke-width="1" /><line x1="470.0" y1="574.0" x2="530.0" y2="574.0" stroke="#999"/><line x1="470.0" y1="553.0" x2="530.0" y2="553.0" stroke="#999"/><line x1="470.0" y1="532.0" x2="530.0" y2="532.0" stroke="#999"/><line x1="470.0" y1="511.0" x2="530.0" y2="511.0" stroke="#999"/><line x1="470.0" y1="489.99999999999994" x2="530.0" y2="489.99999999999994" stroke="#999"/><line x1="470.0" y1="468.99999999999994" x2="530.0" y2="468.99999999999994" stroke="#999"/><line x1="470.0" y1="448.0" x2="530.0" y2="448.0" stroke="#999"/><line x1="470.0" y1="427.0" x2="530.0" y2="427.0" stroke="#999"/><line x1="470.0" y1="406.0" x2="530.0" y2="406.0" stroke="#999"/><line x1="470.0" y1="385.0" x2="530.0" y2="385.0" stroke="#999"/><line x1="470.0" y1="364.0" x2="530.0" y2="364.0" stroke="#999"/><text x="500.0" y="329.0" font-size="10" fill="#5a3e22" font-weight="normal" text-anchor="middle" font-family="PingFang SC,Microsoft YaHei,WenQuanYi Zen Hei,sans-serif">↑ 屋顶观景台</text><text x="295.0" y="639.0" font-size="10" fill="#666" font-weight="normal" text-anchor="middle" font-family="PingFang SC,Microsoft YaHei,WenQuanYi Zen Hei,sans-serif">南侧（朝主屋）：实墙 · 门 → 泳池平台</text><line x1="9.999999999999986" y1="695.0" x2="109.99999999999999" y2="695.0" stroke="#333" stroke-width="3"/><text x="59.999999999999986" y="713.0" font-size="11" text-anchor="middle" font-family="PingFang SC,Microsoft YaHei,WenQuanYi Zen Hei,sans-serif">2 m</text></svg>